<svg width="139" height="82" viewBox="0 0 139 82" fill="none" xmlns="http://www.w3.org/2000/svg">
<path d="M44.2874 47.4453L36.2717 19.1328C35.553 16.8047 35.053 15.4766 34.7717 15.1484C34.5061 14.8047 33.7327 14.5859 32.4514 14.4922L32.0061 14.4688V12.3125H45.5999V14.4688H45.1545C43.2795 14.4688 42.342 14.75 42.342 15.3125C42.342 16.0312 42.5999 17.3047 43.1155 19.1328L47.6858 35.1875L54.8577 12.7344H57.5061L65.1467 36.5703L70.6311 19.2266C70.7561 18.8203 70.9436 18.1562 71.1936 17.2344C71.4436 16.2969 71.5686 15.7031 71.5686 15.4531C71.5686 14.7969 70.717 14.4688 69.0139 14.4688H68.592V12.3125H77.8264V14.4688L77.4045 14.4922C76.8889 14.5391 76.5374 14.5625 76.3499 14.5625C75.5374 14.5625 75.0374 14.7031 74.8499 14.9844C74.6624 15.2656 74.1624 16.6797 73.3499 19.2266L64.3499 47.4453H62.0764L54.2952 23.375L46.6545 47.4453H44.2874Z" fill="#4F4F4F"/>
<path d="M94.9688 70.6641C91.4062 72.1328 87.5547 72.8672 83.4141 72.8672C77.5703 72.8672 73.0156 71.2656 69.75 68.0625C66.4844 64.8594 64.8516 60.3828 64.8516 54.6328C64.8516 48.8516 66.4453 44.375 69.6328 41.2031C72.8203 38.0312 77.3203 36.4453 83.1328 36.4453C86.6641 36.4453 90.4062 36.9531 94.3594 37.9688V45.1172H90.8672V44.6719C90.8672 42.5938 90.5312 41.2734 89.8594 40.7109C88.2969 39.3984 86.0859 38.7422 83.2266 38.7422C79.8203 38.7422 77.1875 40.1172 75.3281 42.8672C73.4688 45.6016 72.5391 49.4844 72.5391 54.5156C72.5391 59.6562 73.5781 63.5156 75.6562 66.0938C77.75 68.6719 80.875 69.9609 85.0312 69.9609C87.9062 69.9609 91.2188 69.1016 94.9688 67.3828V70.6641Z" fill="#4F4F4F"/>
<rect x="10" y="49" width="118" height="16" fill="white"/>
<path d="M13.582 62.1299L11.2441 53.8721C11.0345 53.193 10.8887 52.8057 10.8066 52.71C10.7292 52.6097 10.5036 52.5459 10.1299 52.5186L10 52.5117V51.8828H13.9648V52.5117H13.835C13.2881 52.5117 13.0146 52.5938 13.0146 52.7578C13.0146 52.9674 13.0898 53.3389 13.2402 53.8721L14.5732 58.5547L16.665 52.0059H17.4375L19.666 58.958L21.2656 53.8994C21.3021 53.7809 21.3568 53.5872 21.4297 53.3184C21.5026 53.0449 21.5391 52.8717 21.5391 52.7988C21.5391 52.6074 21.2907 52.5117 20.7939 52.5117H20.6709V51.8828H23.3643V52.5117L23.2412 52.5186C23.0908 52.5322 22.9883 52.5391 22.9336 52.5391C22.6966 52.5391 22.5508 52.5801 22.4961 52.6621C22.4414 52.7441 22.2956 53.1566 22.0586 53.8994L19.4336 62.1299H18.7705L16.501 55.1094L14.2725 62.1299H13.582ZM30.5625 61.7061C29.6693 62.016 28.7988 62.1709 27.9512 62.1709C26.6706 62.1709 25.6566 61.8109 24.9092 61.0908C24.1663 60.3708 23.7949 59.3932 23.7949 58.1582C23.7949 57.0189 24.1299 56.096 24.7998 55.3896C25.4743 54.6787 26.3516 54.3232 27.4316 54.3232C29.5189 54.3232 30.5625 55.6038 30.5625 58.165V58.3154H25.873C25.873 59.2633 26.0941 59.9743 26.5361 60.4482C26.9782 60.9222 27.6413 61.1592 28.5254 61.1592C29.127 61.1592 29.806 60.9951 30.5625 60.667V61.7061ZM25.9209 57.6797H28.5664V57.4404C28.5664 56.5335 28.4753 55.8932 28.293 55.5195C28.1107 55.1458 27.7962 54.959 27.3496 54.959C26.8757 54.959 26.5179 55.1868 26.2764 55.6426C26.0394 56.0938 25.9209 56.7728 25.9209 57.6797ZM34.5752 51.2061V60.0176C34.5752 60.6283 34.6208 60.9974 34.7119 61.125C34.8076 61.248 35.0856 61.3255 35.5459 61.3574L35.6758 61.3643V62H31.458V61.3643L31.5879 61.3574C32.0482 61.3255 32.3239 61.248 32.415 61.125C32.5062 60.9974 32.5518 60.6283 32.5518 60.0176V53.1885C32.5518 52.5778 32.5062 52.2087 32.415 52.0811C32.3239 51.9535 32.0482 51.876 31.5879 51.8486L31.458 51.835V51.2061H34.5752ZM39.1279 51.2061V60.0176C39.1279 60.6283 39.1735 60.9974 39.2646 61.125C39.3604 61.248 39.6383 61.3255 40.0986 61.3574L40.2285 61.3643V62H36.0107V61.3643L36.1406 61.3574C36.6009 61.3255 36.8766 61.248 36.9678 61.125C37.0589 60.9974 37.1045 60.6283 37.1045 60.0176V53.1885C37.1045 52.5778 37.0589 52.2087 36.9678 52.0811C36.8766 51.9535 36.6009 51.876 36.1406 51.8486L36.0107 51.835V51.2061H39.1279ZM43.6807 55.9092C43.9906 55.3805 44.3597 54.984 44.7881 54.7197C45.2165 54.4554 45.7041 54.3232 46.251 54.3232C46.9255 54.3232 47.4541 54.5306 47.8369 54.9453C48.2152 55.3646 48.4043 55.9456 48.4043 56.6885V60.0176C48.4043 60.6283 48.4499 60.9974 48.541 61.125C48.6367 61.248 48.9147 61.3255 49.375 61.3574L49.5049 61.3643V62H45.2871V61.3643L45.4102 61.3574C45.875 61.3255 46.153 61.248 46.2441 61.125C46.3353 60.9974 46.3809 60.6283 46.3809 60.0176V56.9209C46.3809 56.3877 46.3171 56.0277 46.1895 55.8408C46.0664 55.6494 45.8271 55.5537 45.4717 55.5537C45.1663 55.5537 44.8633 55.6471 44.5625 55.834C44.2663 56.0163 43.9723 56.2943 43.6807 56.668V60.0176C43.6807 60.6283 43.7262 60.9974 43.8174 61.125C43.9131 61.248 44.1911 61.3255 44.6514 61.3574L44.7812 61.3643V62H40.5635V61.3643L40.6934 61.3574C41.1536 61.3255 41.4294 61.248 41.5205 61.125C41.6117 60.9974 41.6572 60.6283 41.6572 60.0176V56.4766C41.6572 55.8659 41.6117 55.499 41.5205 55.376C41.4294 55.2484 41.1536 55.1686 40.6934 55.1367L40.5635 55.1299V54.4941H43.6807V55.9092ZM56.7031 61.7061C55.8099 62.016 54.9395 62.1709 54.0918 62.1709C52.8112 62.1709 51.7972 61.8109 51.0498 61.0908C50.307 60.3708 49.9355 59.3932 49.9355 58.1582C49.9355 57.0189 50.2705 56.096 50.9404 55.3896C51.6149 54.6787 52.4922 54.3232 53.5723 54.3232C55.6595 54.3232 56.7031 55.6038 56.7031 58.165V58.3154H52.0137C52.0137 59.2633 52.2347 59.9743 52.6768 60.4482C53.1188 60.9222 53.7819 61.1592 54.666 61.1592C55.2676 61.1592 55.9466 60.9951 56.7031 60.667V61.7061ZM52.0615 57.6797H54.707V57.4404C54.707 56.5335 54.6159 55.8932 54.4336 55.5195C54.2513 55.1458 53.9368 54.959 53.4902 54.959C53.0163 54.959 52.6585 55.1868 52.417 55.6426C52.18 56.0938 52.0615 56.7728 52.0615 57.6797ZM58.1455 61.6582V59.7236H59.0752L59.082 59.8467C59.1094 60.4118 59.196 60.7741 59.3418 60.9336C59.7064 61.3346 60.2464 61.5352 60.9619 61.5352C61.3083 61.5352 61.5999 61.4235 61.8369 61.2002C62.0785 60.9769 62.1992 60.7012 62.1992 60.373C62.1992 59.8672 61.7731 59.4456 60.9209 59.1084L60.2988 58.8623C58.8633 58.2926 58.1455 57.5247 58.1455 56.5586C58.1455 55.875 58.4212 55.3327 58.9727 54.9316C59.5286 54.526 60.2783 54.3232 61.2217 54.3232C61.9691 54.3232 62.7484 54.4417 63.5596 54.6787V56.4766H62.6299L62.623 56.3467L62.6094 56.0186C62.6094 55.3122 62.1969 54.959 61.3721 54.959C61.012 54.959 60.7067 55.0752 60.4561 55.3076C60.2054 55.54 60.0801 55.8249 60.0801 56.1621C60.0801 56.4447 60.1712 56.668 60.3535 56.832C60.5404 56.9915 60.9209 57.1807 61.4951 57.3994L62.1104 57.6387C63.5094 58.1764 64.209 58.8965 64.209 59.7988C64.209 60.487 63.9128 61.0544 63.3203 61.501C62.7279 61.9476 61.9759 62.1709 61.0645 62.1709C59.9342 62.1709 58.9613 62 58.1455 61.6582ZM65.4873 61.6582V59.7236H66.417L66.4238 59.8467C66.4512 60.4118 66.5378 60.7741 66.6836 60.9336C67.0482 61.3346 67.5882 61.5352 68.3037 61.5352C68.6501 61.5352 68.9417 61.4235 69.1787 61.2002C69.4202 60.9769 69.541 60.7012 69.541 60.373C69.541 59.8672 69.1149 59.4456 68.2627 59.1084L67.6406 58.8623C66.2051 58.2926 65.4873 57.5247 65.4873 56.5586C65.4873 55.875 65.763 55.3327 66.3145 54.9316C66.8704 54.526 67.6201 54.3232 68.5635 54.3232C69.3109 54.3232 70.0902 54.4417 70.9014 54.6787V56.4766H69.9717L69.9648 56.3467L69.9512 56.0186C69.9512 55.3122 69.5387 54.959 68.7139 54.959C68.3538 54.959 68.0485 55.0752 67.7979 55.3076C67.5472 55.54 67.4219 55.8249 67.4219 56.1621C67.4219 56.4447 67.513 56.668 67.6953 56.832C67.8822 56.9915 68.2627 57.1807 68.8369 57.3994L69.4521 57.6387C70.8512 58.1764 71.5508 58.8965 71.5508 59.7988C71.5508 60.487 71.2546 61.0544 70.6621 61.501C70.0697 61.9476 69.3177 62.1709 68.4062 62.1709C67.276 62.1709 66.3031 62 65.4873 61.6582ZM85.7559 61.6104C84.7168 62.0387 83.5934 62.2529 82.3857 62.2529C80.6813 62.2529 79.3529 61.7858 78.4004 60.8516C77.4479 59.9173 76.9717 58.6117 76.9717 56.9346C76.9717 55.2484 77.4365 53.9427 78.3662 53.0176C79.2959 52.0924 80.6084 51.6299 82.3037 51.6299C83.3337 51.6299 84.4251 51.778 85.5781 52.0742V54.1592H84.5596V54.0293C84.5596 53.4232 84.4616 53.0381 84.2656 52.874C83.8099 52.4912 83.165 52.2998 82.3311 52.2998C81.3376 52.2998 80.5697 52.7008 80.0273 53.5029C79.485 54.3005 79.2139 55.4329 79.2139 56.9004C79.2139 58.3997 79.5169 59.5254 80.123 60.2773C80.7337 61.0293 81.6452 61.4053 82.8574 61.4053C83.696 61.4053 84.6621 61.1546 85.7559 60.6533V61.6104ZM93.5762 61.7061C92.6829 62.016 91.8125 62.1709 90.9648 62.1709C89.6842 62.1709 88.6702 61.8109 87.9229 61.0908C87.18 60.3708 86.8086 59.3932 86.8086 58.1582C86.8086 57.0189 87.1436 56.096 87.8135 55.3896C88.488 54.6787 89.3652 54.3232 90.4453 54.3232C92.5326 54.3232 93.5762 55.6038 93.5762 58.165V58.3154H88.8867C88.8867 59.2633 89.1077 59.9743 89.5498 60.4482C89.9919 60.9222 90.6549 61.1592 91.5391 61.1592C92.1406 61.1592 92.8197 60.9951 93.5762 60.667V61.7061ZM88.9346 57.6797H91.5801V57.4404C91.5801 56.5335 91.4889 55.8932 91.3066 55.5195C91.1243 55.1458 90.8099 54.959 90.3633 54.959C89.8893 54.959 89.5316 55.1868 89.29 55.6426C89.0531 56.0938 88.9346 56.7728 88.9346 57.6797ZM97.5889 55.9092C97.8988 55.3805 98.2679 54.984 98.6963 54.7197C99.1247 54.4554 99.6123 54.3232 100.159 54.3232C100.834 54.3232 101.362 54.5306 101.745 54.9453C102.123 55.3646 102.312 55.9456 102.312 56.6885V60.0176C102.312 60.6283 102.358 60.9974 102.449 61.125C102.545 61.248 102.823 61.3255 103.283 61.3574L103.413 61.3643V62H99.1953V61.3643L99.3184 61.3574C99.7832 61.3255 100.061 61.248 100.152 61.125C100.243 60.9974 100.289 60.6283 100.289 60.0176V56.9209C100.289 56.3877 100.225 56.0277 100.098 55.8408C99.9746 55.6494 99.7354 55.5537 99.3799 55.5537C99.0745 55.5537 98.7715 55.6471 98.4707 55.834C98.1745 56.0163 97.8805 56.2943 97.5889 56.668V60.0176C97.5889 60.6283 97.6344 60.9974 97.7256 61.125C97.8213 61.248 98.0993 61.3255 98.5596 61.3574L98.6895 61.3643V62H94.4717V61.3643L94.6016 61.3574C95.0618 61.3255 95.3376 61.248 95.4287 61.125C95.5199 60.9974 95.5654 60.6283 95.5654 60.0176V56.4766C95.5654 55.8659 95.5199 55.499 95.4287 55.376C95.3376 55.2484 95.0618 55.1686 94.6016 55.1367L94.4717 55.1299V54.4941H97.5889V55.9092ZM108.506 61.9385C108.082 62.0934 107.667 62.1709 107.262 62.1709C106.419 62.1709 105.785 61.9635 105.361 61.5488C104.942 61.1296 104.732 60.5029 104.732 59.6689V55.1709H103.803V54.4941H104.732V53.2295L106.756 52.874V54.4941H108.417V55.1709H106.756V59.7168C106.756 60.3867 106.822 60.8288 106.954 61.043C107.086 61.2572 107.36 61.3643 107.774 61.3643C108.002 61.3643 108.246 61.3118 108.506 61.207V61.9385ZM116.053 61.7061C115.16 62.016 114.289 62.1709 113.441 62.1709C112.161 62.1709 111.147 61.8109 110.399 61.0908C109.657 60.3708 109.285 59.3932 109.285 58.1582C109.285 57.0189 109.62 56.096 110.29 55.3896C110.965 54.6787 111.842 54.3232 112.922 54.3232C115.009 54.3232 116.053 55.6038 116.053 58.165V58.3154H111.363C111.363 59.2633 111.584 59.9743 112.026 60.4482C112.468 60.9222 113.132 61.1592 114.016 61.1592C114.617 61.1592 115.296 60.9951 116.053 60.667V61.7061ZM111.411 57.6797H114.057V57.4404C114.057 56.5335 113.965 55.8932 113.783 55.5195C113.601 55.1458 113.286 54.959 112.84 54.959C112.366 54.959 112.008 55.1868 111.767 55.6426C111.53 56.0938 111.411 56.7728 111.411 57.6797ZM120.065 56.6338V60.0176C120.065 60.6374 120.116 61.0065 120.216 61.125C120.316 61.2435 120.646 61.321 121.207 61.3574L121.337 61.3643V62H116.948V61.3643L117.078 61.3574C117.538 61.3255 117.814 61.248 117.905 61.125C117.996 60.9974 118.042 60.6283 118.042 60.0176V56.4766C118.042 55.8659 117.996 55.499 117.905 55.376C117.814 55.2484 117.538 55.1686 117.078 55.1367L116.948 55.1299V54.4941H120.065V55.9092C120.681 54.8519 121.478 54.3232 122.458 54.3232C122.563 54.3232 122.695 54.3415 122.854 54.3779V56.7705H121.925L121.918 56.6475C121.882 56.1416 121.847 55.8568 121.815 55.793C121.788 55.7246 121.676 55.6904 121.48 55.6904C120.897 55.6904 120.425 56.0049 120.065 56.6338Z" fill="#643992"/>
</svg>
